# xmcd
#
# Track frame offsets:
#	150
#	18146
#	37868
#	48775
#	65758
#	77038
#	90091
#	107646
#	120783
#	138071
#	152640
#	165865
#	181645
#	199572
#	213062
#	230519
#	243007
#	259514
#	274477
#	291062
#
# Disc length: 4071 seconds
#
# Revision: 1
# Processed by: cddbd v1.4PL0 Copyright (c) Steve Scherf et al.
# Submitted via: audiograbber 1.80.04
#
DISCID=e40fe514
DTITLE=Alan Jackson - The Geatest Hits Collection
DYEAR=1995
DGENRE=Country
TTITLE0=Chattahoochee(Extended Mix)
TTITLE1=Gone Country
TTITLE2=She s Got The Rhythm (And I Got The Blues)
TTITLE3=Midnight In Montgomery
TTITLE4=Tall Tall Trees
TTITLE5=Chasin' That Neon Rainbow
TTITLE6=I'll Try
TTITLE7=Don't Rock The Jukebox
TTITLE8=Livin' On Love
TTITLE9=Summertime Blues
TTITLE10=Love's Got A Hold On You
TTITLE11=(Who Says) You Can't Have It All 
TTITLE12=Home 
TTITLE13=Wanted
TTITLE14=I Don't Even Know Your Name
TTITLE15=Dallas
TTITLE16=Here In The Real World
TTITLE17=Someday
TTITLE18=Mercury Blues
TTITLE19=I'd Love You All Over Again
EXTD=
EXTT0=
EXTT1=
EXTT2=
EXTT3=
EXTT4=
EXTT5=
EXTT6=
EXTT7=
EXTT8=
EXTT9=
EXTT10=
EXTT11=
EXTT12=
EXTT13=
EXTT14=
EXTT15=
EXTT16=
EXTT17=
EXTT18=
EXTT19=
PLAYORDER=
